HIERARCHY
ROOT Hips
{
	OFFSET -1.912037 86.568367 5.530624
	CHANNELS 6 Xposition Yposition Zposition Zrotation Yrotation Xrotation 
	JOINT Spine
	{
		OFFSET 0.000000 8.814246 -2.080107
		CHANNELS 3 Zrotation Yrotation Xrotation
		JOINT Spine1
		{
			OFFSET 0.000000 8.844141 0.000000
			CHANNELS 3 Zrotation Yrotation Xrotation
			JOINT Spine2
			{
				OFFSET 0.000000 11.682268 0.000000
				CHANNELS 3 Zrotation Yrotation Xrotation
				JOINT Spine3
				{
					OFFSET -0.000000 11.746700 0.000000
					CHANNELS 3 Zrotation Yrotation Xrotation
					JOINT Neck
					{
						OFFSET -0.000000 17.658264 0.000000
						CHANNELS 3 Zrotation Yrotation Xrotation
						JOINT Neck1
						{
							OFFSET 0.000000 5.101515 0.000000
							CHANNELS 3 Zrotation Yrotation Xrotation
							JOINT Head
							{
								OFFSET 0.000000 5.101515 -0.000000
								CHANNELS 3 Zrotation Yrotation Xrotation
								JOINT HeadEnd
								{
									OFFSET -0.000000 11.655085 0.000000
									CHANNELS 3 Zrotation Yrotation Xrotation
									End Site
									{
										OFFSET 0.000000 0.000000 0.000000
									}
								}
							}
						}
					}
					JOINT RightShoulder
					{
						OFFSET -2.625389 11.175210 0.000000
						CHANNELS 3 Zrotation Yrotation Xrotation
						JOINT RightArm
						{
							OFFSET -0.000000 10.434715 -0.000000
							CHANNELS 3 Zrotation Yrotation Xrotation
							JOINT RightForeArm
							{
								OFFSET -0.000000 29.628420 -0.000000
								CHANNELS 3 Zrotation Yrotation Xrotation
								JOINT RightHand
								{
									OFFSET -0.000000 22.857611 -0.000000
									CHANNELS 3 Zrotation Yrotation Xrotation
									JOINT RightHandThumb1
									{
										OFFSET -2.867323 3.959563 2.944291
										CHANNELS 3 Zrotation Yrotation Xrotation
										JOINT RightHandThumb2
										{
											OFFSET 0.000000 3.350399 0.000000
											CHANNELS 3 Zrotation Yrotation Xrotation
											JOINT RightHandThumb3
											{
												OFFSET 0.000000 3.756509 0.000000
												CHANNELS 3 Zrotation Yrotation Xrotation
												JOINT RightHandThumb4
												{
													OFFSET -0.000000 3.147345 -0.000000
													CHANNELS 3 Zrotation Yrotation Xrotation
													End Site
													{
														OFFSET 0.000000 0.000000 0.000000
													}
												}
											}
										}
									}
									JOINT RightHandIndex1
									{
										OFFSET -0.086752 10.030893 2.345280
										CHANNELS 3 Zrotation Yrotation Xrotation
										JOINT RightHandIndex2
										{
											OFFSET -0.000000 4.061090 -0.000000
											CHANNELS 3 Zrotation Yrotation Xrotation
											JOINT RightHandIndex3
											{
												OFFSET 0.000000 3.248873 -0.000000
												CHANNELS 3 Zrotation Yrotation Xrotation
												JOINT RightHandIndex4
												{
													OFFSET 0.000000 2.639709 0.000000
													CHANNELS 3 Zrotation Yrotation Xrotation
													End Site
													{
														OFFSET 0.000000 0.000000 0.000000
													}
												}
											}
										}
									}
									JOINT RightHandMiddle1
									{
										OFFSET 0.104102 9.502952 0.006768
										CHANNELS 3 Zrotation Yrotation Xrotation
										JOINT RightHandMiddle2
										{
											OFFSET -0.000000 4.568727 -0.000000
											CHANNELS 3 Zrotation Yrotation Xrotation
											JOINT RightHandMiddle3
											{
												OFFSET 0.000000 3.654981 0.000000
												CHANNELS 3 Zrotation Yrotation Xrotation
												JOINT RightHandMiddle4
												{
													OFFSET -0.000000 2.741236 -0.000000
													CHANNELS 3 Zrotation Yrotation Xrotation
													End Site
													{
														OFFSET 0.000000 0.000000 0.000000
													}
												}
											}
										}
									}
									JOINT RightHandRing1
									{
										OFFSET 0.086752 8.921708 -2.267442
										CHANNELS 3 Zrotation Yrotation Xrotation
										JOINT RightHandRing2
										{
											OFFSET -0.000000 4.061090 -0.000000
											CHANNELS 3 Zrotation Yrotation Xrotation
											JOINT RightHandRing3
											{
												OFFSET -0.000000 3.654981 -0.000000
												CHANNELS 3 Zrotation Yrotation Xrotation
												JOINT RightHandRing4
												{
													OFFSET 0.000000 2.741236 0.000000
													CHANNELS 3 Zrotation Yrotation Xrotation
													End Site
													{
														OFFSET 0.000000 0.000000 0.000000
													}
												}
											}
										}
									}
									JOINT RightHandPinky1
									{
										OFFSET -0.173504 7.976997 -4.467199
										CHANNELS 3 Zrotation Yrotation Xrotation
										JOINT RightHandPinky2
										{
											OFFSET -0.000000 3.350399 -0.000000
											CHANNELS 3 Zrotation Yrotation Xrotation
											JOINT RightHandPinky3
											{
												OFFSET -0.000000 2.842763 -0.000000
												CHANNELS 3 Zrotation Yrotation Xrotation
												JOINT RightHandPinky4
												{
													OFFSET 0.000000 2.639709 -0.000000
													CHANNELS 3 Zrotation Yrotation Xrotation
													End Site
													{
														OFFSET 0.000000 0.000000 0.000000
													}
												}
											}
										}
									}
									JOINT RightForeArmEnd
									{
										OFFSET 0.000000 0.000000 0.000000
										CHANNELS 3 Zrotation Yrotation Xrotation
										End Site
										{
											OFFSET 0.000000 0.000000 0.000000
										}
									}
								}
								JOINT RightArmEnd
								{
									OFFSET 0.000000 0.000000 0.000000
									CHANNELS 3 Zrotation Yrotation Xrotation
									End Site
									{
										OFFSET 0.000000 0.000000 0.000000
									}
								}
							}
						}
					}
					JOINT LeftShoulder
					{
						OFFSET 2.625389 11.175210 0.000000
						CHANNELS 3 Zrotation Yrotation Xrotation
						JOINT LeftArm
						{
							OFFSET 0.000000 10.813635 0.000000
							CHANNELS 3 Zrotation Yrotation Xrotation
							JOINT LeftForeArm
							{
								OFFSET -0.000000 28.724781 -0.000000
								CHANNELS 3 Zrotation Yrotation Xrotation
								JOINT LeftHand
								{
									OFFSET 0.644384 25.716167 -0.328871
									CHANNELS 3 Zrotation Yrotation Xrotation
									JOINT LeftHandThumb1
									{
										OFFSET 2.867323 3.959563 2.944291
										CHANNELS 3 Zrotation Yrotation Xrotation
										JOINT LeftHandThumb2
										{
											OFFSET 0.000000 3.350399 -0.000000
											CHANNELS 3 Zrotation Yrotation Xrotation
											JOINT LeftHandThumb3
											{
												OFFSET 0.000000 3.756509 -0.000000
												CHANNELS 3 Zrotation Yrotation Xrotation
												JOINT LeftHandThumb4
												{
													OFFSET -0.000000 3.100000 0.000000
													CHANNELS 3 Zrotation Yrotation Xrotation
													End Site
													{
														OFFSET 0.000000 0.000000 0.000000
													}
												}
											}
										}
									}
									JOINT LeftHandIndex1
									{
										OFFSET 0.086752 10.030893 2.345280
										CHANNELS 3 Zrotation Yrotation Xrotation
										JOINT LeftHandIndex2
										{
											OFFSET -0.000000 4.061090 -0.000000
											CHANNELS 3 Zrotation Yrotation Xrotation
											JOINT LeftHandIndex3
											{
												OFFSET 0.000000 3.248873 -0.000000
												CHANNELS 3 Zrotation Yrotation Xrotation
												JOINT LeftHandIndex4
												{
													OFFSET 0.000000 2.639709 -0.000000
													CHANNELS 3 Zrotation Yrotation Xrotation
													End Site
													{
														OFFSET 0.000000 0.000000 0.000000
													}
												}
											}
										}
									}
									JOINT LeftHandMiddle1
									{
										OFFSET -0.104102 9.502952 0.006768
										CHANNELS 3 Zrotation Yrotation Xrotation
										JOINT LeftHandMiddle2
										{
											OFFSET 0.000000 4.568727 -0.000000
											CHANNELS 3 Zrotation Yrotation Xrotation
											JOINT LeftHandMiddle3
											{
												OFFSET 0.000000 3.654981 -0.000000
												CHANNELS 3 Zrotation Yrotation Xrotation
												JOINT LeftHandMiddle4
												{
													OFFSET -0.000000 2.741236 0.000000
													CHANNELS 3 Zrotation Yrotation Xrotation
													End Site
													{
														OFFSET 0.000000 0.000000 0.000000
													}
												}
											}
										}
									}
									JOINT LeftHandRing1
									{
										OFFSET -0.086752 8.921708 -2.267442
										CHANNELS 3 Zrotation Yrotation Xrotation
										JOINT LeftHandRing2
										{
											OFFSET -0.000000 4.061090 0.000000
											CHANNELS 3 Zrotation Yrotation Xrotation
											JOINT LeftHandRing3
											{
												OFFSET 0.000000 3.654981 -0.000000
												CHANNELS 3 Zrotation Yrotation Xrotation
												JOINT LeftHandRing4
												{
													OFFSET 0.000000 2.741236 -0.000000
													CHANNELS 3 Zrotation Yrotation Xrotation
													End Site
													{
														OFFSET 0.000000 0.000000 0.000000
													}
												}
											}
										}
									}
									JOINT LeftHandPinky1
									{
										OFFSET 0.173504 7.976997 -4.467199
										CHANNELS 3 Zrotation Yrotation Xrotation
										JOINT LeftHandPinky2
										{
											OFFSET -0.000000 3.350399 0.000000
											CHANNELS 3 Zrotation Yrotation Xrotation
											JOINT LeftHandPinky3
											{
												OFFSET 0.000000 2.842763 -0.000000
												CHANNELS 3 Zrotation Yrotation Xrotation
												JOINT LeftHandPinky4
												{
													OFFSET 0.000000 2.639709 -0.000000
													CHANNELS 3 Zrotation Yrotation Xrotation
													End Site
													{
														OFFSET 0.000000 0.000000 0.000000
													}
												}
											}
										}
									}
									JOINT LeftForeArmEnd
									{
										OFFSET 0.000000 0.000000 0.000000
										CHANNELS 3 Zrotation Yrotation Xrotation
										End Site
										{
											OFFSET 0.000000 0.000000 0.000000
										}
									}
								}
								JOINT LeftArmEnd
								{
									OFFSET 0.000000 0.000000 0.000000
									CHANNELS 3 Zrotation Yrotation Xrotation
									End Site
									{
										OFFSET 0.000000 0.000000 0.000000
									}
								}
							}
						}
					}
				}
			}
		}
	}
	JOINT RightUpLeg
	{
		OFFSET -11.289943 0.000000 -0.000000
		CHANNELS 3 Zrotation Yrotation Xrotation
		JOINT RightLeg
		{
			OFFSET -0.000000 -38.200325 -0.000000
			CHANNELS 3 Zrotation Yrotation Xrotation
			JOINT RightFoot
			{
				OFFSET -0.000000 -39.900856 -0.000000
				CHANNELS 3 Zrotation Yrotation Xrotation
				JOINT RightToeBase
				{
					OFFSET -0.000000 0.000000 15.261641
					CHANNELS 3 Zrotation Yrotation Xrotation
					JOINT RightToeBaseEnd
					{
						OFFSET -0.000000 0.000000 7.370709
						CHANNELS 3 Zrotation Yrotation Xrotation
						End Site
						{
							OFFSET 0.000000 0.000000 0.000000
						}
					}
				}
				JOINT RightLegEnd
				{
					OFFSET 0.000000 0.000000 0.000000
					CHANNELS 3 Zrotation Yrotation Xrotation
					End Site
					{
						OFFSET 0.000000 0.000000 0.000000
					}
				}
			}
			JOINT RightUpLegEnd
			{
				OFFSET 0.000000 0.000000 0.000000
				CHANNELS 3 Zrotation Yrotation Xrotation
				End Site
				{
					OFFSET 0.000000 0.000000 0.000000
				}
			}
		}
	}
	JOINT LeftUpLeg
	{
		OFFSET 11.315661 0.000000 -0.000000
		CHANNELS 3 Zrotation Yrotation Xrotation
		JOINT LeftLeg
		{
			OFFSET -0.000000 -38.200325 -0.000000
			CHANNELS 3 Zrotation Yrotation Xrotation
			JOINT LeftFoot
			{
				OFFSET 0.000000 -39.900856 -0.000000
				CHANNELS 3 Zrotation Yrotation Xrotation
				JOINT LeftToeBase
				{
					OFFSET 0.000000 0.000000 15.261641
					CHANNELS 3 Zrotation Yrotation Xrotation
					JOINT LeftToeBaseEnd
					{
						OFFSET 0.000000 0.000000 7.539996
						CHANNELS 3 Zrotation Yrotation Xrotation
						End Site
						{
							OFFSET 0.000000 0.000000 0.000000
						}
					}
				}
				JOINT LeftLegEnd
				{
					OFFSET 0.000000 0.000000 0.000000
					CHANNELS 3 Zrotation Yrotation Xrotation
					End Site
					{
						OFFSET 0.000000 0.000000 0.000000
					}
				}
			}
			JOINT LeftUpLegEnd
			{
				OFFSET 0.000000 0.000000 0.000000
				CHANNELS 3 Zrotation Yrotation Xrotation
				End Site
				{
					OFFSET 0.000000 0.000000 0.000000
				}
			}
		}
	}
}
MOTION
Frames: 4
Frame Time: 0.016667
-0.532730 85.863266 8.647367 2.637848 -1.419392 -15.698604 -1.667707 0.561770 7.019034 -5.093754 1.560864 0.002574 2.395337 0.462364 17.482588 0.421068 0.649654 1.203651 -7.157146 -1.811246 12.287683 4.194652 -1.162188 -7.061344 0.104535 -4.052583 -25.132084 0.000000 0.000000 0.000000 94.609657 -0.775973 8.230531 51.508438 -39.042351 12.381028 0.662831 9.241503 36.998119 5.403466 27.582695 -7.837529 9.854715 -1.804180 40.195858 0.000020 0.000007 -24.240463 0.000009 0.000041 -16.786831 -0.000009 0.000008 -0.000024 11.541986 16.752937 -14.112548 10.075883 -0.721115 -2.824985 10.000000 0.266772 -2.666540 0.000003 -0.000014 -0.000011 14.213455 6.864576 -14.486803 10.893376 -0.868945 -1.214837 10.791626 0.117011 -1.044233 -0.000001 0.000121 0.000016 20.475058 -8.772861 -13.254677 12.301544 1.795080 1.765655 12.253760 -0.158563 1.391911 -0.000008 0.000609 0.000005 25.264009 -25.035736 -13.860121 12.200274 3.422896 5.137563 11.965581 -0.501976 4.349297 -0.000402 0.000001 0.000010 0.000000 0.000000 0.000000 0.000000 0.000000 0.000000 -95.437393 0.524631 7.895963 -51.313969 44.086212 1.234870 -4.233771 -15.102433 50.574272 1.723267 -13.893723 -16.625765 -10.411780 1.840479 40.003223 -0.000018 0.000018 -25.199831 0.000056 -0.000031 -17.540956 -0.000731 -0.000015 0.000289 -15.165545 16.781189 -8.390233 -8.692868 -0.747708 2.735116 -8.751858 0.218182 2.639008 0.000025 -0.000659 0.000015 -14.304412 6.968966 -10.160044 -9.426792 -0.894495 1.194082 -9.403624 0.096177 1.028540 -0.000098 -0.000061 0.000005 -12.359151 -8.897982 -11.555165 -9.882865 1.850266 -1.674292 -9.851370 -0.124415 -1.325379 0.000125 -0.000007 -0.000000 -7.778272 -25.164801 -16.379070 -9.421120 3.508538 -4.821178 -9.347378 -0.382943 -4.118572 -0.000392 -0.000004 -0.000046 0.000000 0.000000 0.000000 0.000000 0.000000 0.000000 -13.232113 -1.790208 10.960094 -0.373461 -1.025523 20.197334 3.208242 -1.556095 13.203248 -0.570167 -0.611074 -28.154291 0.000000 0.000000 0.000000 0.000000 0.000000 0.000000 0.000000 0.000000 0.000000 -1.403146 5.723103 19.373934 0.158192 0.773545 11.673487 2.582552 16.405807 12.568855 0.355541 0.677488 -27.161695 0.000000 0.000000 0.000000 0.000000 0.000000 0.000000 0.000000 0.000000 0.000000 
-0.614018 85.862495 8.574915 2.671060 -1.394228 -15.649713 -1.676231 0.556695 6.998703 -5.118737 1.560918 0.082576 2.368962 0.436265 17.435257 0.410985 0.623462 1.245504 -7.181607 -1.772409 12.317666 4.189924 -1.140087 -7.015433 0.095055 -4.056289 -25.058342 0.000000 0.000000 0.000000 94.596497 -0.769660 8.269588 51.523849 -39.111382 12.318857 0.651137 9.166638 37.036747 5.472631 28.070948 -7.753570 9.873924 -1.804399 40.189980 0.000020 0.000006 -24.289906 0.000009 0.000041 -16.819979 -0.000009 0.000008 -0.000024 11.602697 16.755907 -14.195634 10.117414 -0.714841 -2.837582 10.049770 0.272978 -2.678735 0.000003 -0.000015 -0.000011 14.303574 6.867656 -14.536084 10.964433 -0.866566 -1.220050 10.861825 0.119340 -1.049132 -0.000002 0.000115 0.000016 20.652847 -8.775117 -13.258657 12.412870 1.791102 1.776494 12.364036 -0.162011 1.400483 -0.000008 0.000591 0.000006 25.500555 -25.032560 -13.818241 12.348521 3.408294 5.174181 12.114610 -0.514383 4.380640 -0.000391 0.000001 0.000008 0.000000 0.000000 0.000000 0.000000 0.000000 0.000000 -95.430161 0.526052 7.960511 -51.318111 44.062065 1.312581 -4.237411 -15.098996 50.546867 1.930533 -13.835890 -16.701281 -10.401180 1.837982 40.011372 -0.000018 0.000018 -25.154835 0.000054 -0.000031 -17.514278 -0.000694 -0.000015 0.000415 -15.089161 16.773565 -8.410837 -8.623406 -0.746698 2.734249 -8.684902 0.218276 2.639683 0.000025 -0.000712 0.000015 -14.230859 6.964354 -10.174781 -9.351442 -0.894237 1.194164 -9.332400 0.096233 1.029063 -0.000116 -0.000061 0.000006 -12.314975 -8.889566 -11.577938 -9.817572 1.848514 -1.671868 -9.785267 -0.124832 -1.323738 0.000064 -0.000007 -0.000000 -7.763617 -25.142088 -16.384403 -9.376724 3.506146 -4.815111 -9.312947 -0.383091 -4.114780 -0.000394 -0.000004 -0.000046 0.000000 0.000000 0.000000 0.000000 0.000000 0.000000 -13.222116 -1.722812 10.810489 -0.371567 -1.012972 20.287933 3.173181 -1.597647 13.207727 -0.565034 -0.613385 -28.154722 0.000000 0.000000 0.000000 0.000000 0.000000 0.000000 0.000000 0.000000 0.000000 -1.425814 5.751606 19.196697 0.159169 0.776253 11.818169 2.571304 16.443228 12.627687 0.357368 0.674268 -27.184330 0.000000 0.000000 0.000000 0.000000 0.000000 0.000000 0.000000 0.000000 0.000000 
-0.710141 85.866791 8.500336 2.701370 -1.369738 -15.595558 -1.682335 0.550980 6.979317 -5.146372 1.562117 0.164172 2.347477 0.408858 17.393360 0.402520 0.597895 1.285465 -7.209623 -1.744411 12.334997 4.184080 -1.127830 -6.976682 0.085570 -4.061657 -24.981363 0.000000 0.000000 0.000000 94.587738 -0.765070 8.307373 51.546780 -39.148724 12.269818 0.640748 9.106010 37.070587 5.590080 28.599293 -7.670977 9.901930 -1.804970 40.180973 0.000020 0.000006 -24.358902 0.000009 0.000041 -16.866966 -0.000009 0.000009 -0.000024 11.701856 16.761120 -14.285783 10.188647 -0.707347 -2.854542 10.128730 0.280406 -2.694835 0.000003 -0.000015 -0.000011 14.428917 6.871624 -14.587531 11.064484 -0.863701 -1.226961 10.960875 0.122036 -1.055368 -0.000002 0.000109 0.000016 20.861698 -8.778467 -13.258992 12.551529 1.786319 1.789321 12.501781 -0.166027 1.410593 -0.000008 0.000573 0.000006 25.758488 -25.030836 -13.767949 12.518292 3.391505 5.215945 12.285270 -0.528492 4.416243 -0.000381 0.000001 0.000007 0.000000 0.000000 0.000000 0.000000 0.000000 0.000000 -95.423958 0.528339 8.024621 -51.360760 44.040623 1.369281 -4.237446 -15.094297 50.527069 2.093726 -13.785565 -16.781546 -10.393397 1.835447 40.018761 -0.000019 0.000018 -25.115332 0.000052 -0.000031 -17.491587 -0.000650 -0.000015 0.000526 -15.024368 16.767643 -8.431476 -8.558354 -0.745039 2.735723 -8.622378 0.219053 2.642279 0.000024 -0.000764 0.000016 -14.168795 6.960605 -10.190010 -9.281138 -0.893729 1.195104 -9.266764 0.096493 1.030315 -0.000130 -0.000061 0.000006 -12.284465 -8.882277 -11.601624 -9.760328 1.846466 -1.670794 -9.727298 -0.125505 -1.323045 -0.000003 -0.000007 -0.000001 -7.763217 -25.123102 -16.391247 -9.341996 3.502957 -4.812851 -9.288074 -0.384171 -4.114263 -0.000396 -0.000004 -0.000046 0.000000 0.000000 0.000000 0.000000 0.000000 0.000000 -13.200181 -1.661329 10.674373 -0.369265 -1.000085 20.358742 3.129497 -1.654894 13.219346 -0.559622 -0.615109 -28.155750 0.000000 0.000000 0.000000 0.000000 0.000000 0.000000 0.000000 0.000000 0.000000 -1.435524 5.769629 19.009085 0.160347 0.779645 11.966915 2.554452 16.462872 12.692377 0.359739 0.670368 -27.209255 0.000000 0.000000 0.000000 0.000000 0.000000 0.000000 0.000000 0.000000 0.000000 
-0.820107 85.875038 8.422464 2.728941 -1.347446 -15.534182 -1.685749 0.545376 6.960435 -5.174008 1.564037 0.248728 2.329102 0.382478 17.355125 0.394988 0.574144 1.324289 -7.240634 -1.723904 12.339642 4.176842 -1.122095 -6.945358 0.075747 -4.068092 -24.902353 0.000000 0.000000 0.000000 94.580223 -0.762069 8.344681 51.575478 -39.164410 12.237255 0.631215 9.058901 37.096241 5.749171 29.158092 -7.596900 9.935174 -1.805815 40.170033 0.000020 0.000006 -24.439440 0.000009 0.000041 -16.922132 -0.000008 0.000009 -0.000025 11.825601 16.767595 -14.379955 10.280442 -0.699013 -2.874558 10.227678 0.288644 -2.713574 0.000003 -0.000016 -0.000010 14.577372 6.876016 -14.640711 11.184501 -0.860489 -1.235001 11.079564 0.124956 -1.062457 -0.000003 0.000104 0.000016 21.092449 -8.782319 -13.258720 12.709943 1.780911 1.803467 12.659238 -0.170434 1.421696 -0.000008 0.000558 0.000006 26.033087 -25.028753 -13.716671 12.703857 3.372996 5.261295 12.471362 -0.543811 4.454636 -0.000371 0.000001 0.000005 0.000000 0.000000 0.000000 0.000000 0.000000 0.000000 -95.421242 0.532646 8.083619 -51.436592 44.020267 1.416774 -4.232882 -15.091723 50.507202 2.220645 -13.743452 -16.870199 -10.386068 1.833000 40.025913 -0.000020 0.000017 -25.077213 0.000051 -0.000031 -17.469444 -0.000603 -0.000015 0.000627 -14.968417 16.761600 -8.454975 -8.493640 -0.743042 2.737761 -8.560400 0.220169 2.645274 0.000024 -0.000814 0.000016 -14.115080 6.956909 -10.208189 -9.211708 -0.893049 1.196199 -9.202185 0.096852 1.031703 -0.000143 -0.000061 0.000007 -12.263875 -8.875110 -11.627996 -9.706959 1.844251 -1.670279 -9.673263 -0.126289 -1.322738 -0.000076 -0.000007 -0.000001 -7.773446 -25.104975 -16.402054 -9.312365 3.499327 -4.812309 -9.267495 -0.385725 -4.115212 -0.000398 -0.000004 -0.000046 0.000000 0.000000 0.000000 0.000000 0.000000 0.000000 -13.167002 -1.600591 10.540648 -0.366738 -0.987093 20.421047 3.078665 -1.721100 13.236368 -0.553177 -0.616361 -28.158237 0.000000 0.000000 0.000000 0.000000 0.000000 0.000000 0.000000 0.000000 0.000000 -1.432483 5.779070 18.811239 0.161682 0.783437 12.114122 2.530705 16.467350 12.763083 0.362519 0.665844 -27.237452 0.000000 0.000000 0.000000 0.000000 0.000000 0.000000 0.000000 0.000000 0.000000 
